PathFileType	4	(X/Y/Z)	Patient4_TMGait_0pt5_01_right_13.trc.trc
DataRate	CameraRate	NumFrames	NumMarkers	Units	OrigDataRate	OrigDataStartFrame	OrigNumFrames
77.777777777778	77.777777777778	6	33	mm	77.777777777778	89	       141
Frame#	Time	L.ASIS			Sacral			L.Shoulder			Chest			R.Shoulder			Neck			R.ASIS			R.Thigh.Superior			R.Thigh.Lateral			R.Thigh.Inferior			R.Patella			L.Thigh.Superior			L.Thigh.Lateral			L.Thigh.Inferior			L.Patella			L.Shank.Superior			L.Shank.Lateral			L.Shank.Inferior			R.Shank.Superior			R.Shank.Lateral			R.Shank.Inferior			R.Heel			R.Midfoot.Superior			R.Midfoot.Lateral			R.Toe			L.Heel			L.Midfoot.Lateral			L.Midfoot.Superior			L.Toe			L.Elbow			L.Wrist			R.Elbow			R.Wrist			
		X1	Y1	Z1	X2	Y2	Z2	X3	Y3	Z3	X4	Y4	Z4	X5	Y5	Z5	X6	Y6	Z6	X7	Y7	Z7	X8	Y8	Z8	X9	Y9	Z9	X10	Y10	Z10	X11	Y11	Z11	X12	Y12	Z12	X13	Y13	Z13	X14	Y14	Z14	X15	Y15	Z15	X16	Y16	Z16	X17	Y17	Z17	X18	Y18	Z18	X19	Y19	Z19	X20	Y20	Z20	X21	Y21	Z21	X22	Y22	Z22	X23	Y23	Z23	X24	Y24	Z24	X25	Y25	Z25	X26	Y26	Z26	X27	Y27	Z27	X28	Y28	Z28	X29	Y29	Z29	X30	Y30	Z30	X31	Y31	Z31	X32	Y32	Z32	X33	Y33	Z33	

89	17.901428571429	781.300172322710	961.246972646617	293.150325318199	574.280135607870	1007.802492041620	460.180408961609	725.779727448359	1433.565557756163	266.652446767187	842.560618137725	1365.810760805490	419.005623869605	772.937755978246	1440.892865411510	598.753107737455	737.199059489731	1496.879726679490	416.500433769791	804.690223555256	939.782845601639	566.854167201151	828.323808013257	730.220433966006	546.608060166966	739.060909416026	627.537891796994	610.464043325281	813.525094589669	563.298343204344	535.708798512656	798.883283196804	457.980394827372	553.117136430479	845.864286341363	759.019939854388	329.267244004042	768.731293328550	636.843762693150	270.927387989722	857.887734588674	566.213612016611	336.946585647296	863.774998254647	494.944548443397	346.888368163383	838.882291440154	421.693171915406	338.476147628864	755.209919280003	304.030191959569	287.003473856507	808.308910714812	195.122479194581	358.715054395701	727.112135867275	389.683083911570	558.890745874629	611.957146770324	337.477910792262	619.288261944597	607.809760237286	228.685508866138	567.584038909880	412.835563062018	135.246681647717	536.804730865451	587.676177809644	115.736711414528	584.466585542203	480.170573163625	95.124598266461	615.313202333860	671.567308497872	33.139178351317	620.896505935653	683.637571767421	37.893636126001	399.425799344738	758.256514363588	35.232613278706	319.000003270895	841.284656472912	96.315900582169	346.088160506126	969.932776022345	43.791884284584	318.669923742929	670.143496856143	1079.409136389915	157.279843429565	769.246537850164	836.904109968104	149.186302844920	865.657756523245	1102.223650718980	696.222559652187	1105.116632179525	1062.612001746460	619.546756310438	
90	17.914285714286	781.504623577145	961.618269358323	291.379589309051	573.583497409858	1008.034024549642	457.264887631667	726.879493283748	1434.141494043779	264.897219004819	842.434446478502	1366.138152628347	418.113232891958	771.475309634992	1441.032120163642	597.459552570236	737.190083364370	1497.317854794991	414.905304966128	803.322733009730	940.143728585050	565.076988543127	831.627491262906	732.186980405949	544.399477867604	745.245919024290	627.855108834190	608.695952866323	821.302115072386	564.802389872514	533.934083468178	807.958681138776	458.171583245417	552.281875250913	844.511687634315	758.235676509186	327.135829936839	766.035964969495	636.811010917607	269.267075691548	854.293236801275	565.413010574985	335.479353563559	859.425132491993	494.254599025574	345.703141836206	834.292750531474	421.187443558147	337.402438135349	750.197267507624	303.774889165293	286.124331537389	802.582229007802	194.843142551892	358.310757622015	734.356289455803	390.600964141976	557.886268083103	617.429384730428	341.895935068486	617.839509853759	610.566649862139	233.007244638502	566.731118675547	413.356680711233	147.152475589926	535.301986969678	586.778012128173	119.380454318084	583.754405169141	478.310965234331	104.146105615094	614.240765509066	666.054601497289	32.502044953391	620.877679069379	677.184951704699	37.917600711645	399.334198751131	751.812948557791	35.193023290127	318.923948826616	834.926582201252	96.191956373907	346.028602455429	963.561069845584	43.422172102840	318.643632646713	675.910187664134	1079.993436652064	152.760347758079	782.851132324323	840.752614714307	144.869283498705	857.569444866621	1099.801071023774	695.017763606302	1095.752823540719	1041.589250510501	623.498413898460	
91	17.927142857143	781.563442818782	961.908820452650	289.683435993017	572.800994993612	1008.184253275601	454.492336683477	727.873759894791	1434.643782413155	263.304338970241	842.246188454872	1366.352438258814	417.323618886173	770.025133465112	1441.054702276151	596.305818687873	737.178597442696	1497.674081126186	413.468081954268	801.799213430577	940.418480186672	563.357627009147	834.885770654654	734.329160660261	542.130797371246	751.616345471282	628.337150681812	606.943203841030	829.179779074266	566.609180657218	532.062091965227	817.297903729310	458.722800199711	551.218465479521	843.072266373586	757.481843326163	325.134203018273	763.279726871076	636.781588122448	267.672732030536	850.662043428544	564.629323375123	334.063581073630	855.051554809824	493.574259525494	344.567109324376	829.685683952413	420.692626391314	336.367705692104	745.158361883253	303.541163201269	285.268255222719	796.844264468919	194.578424220270	357.920474750766	741.987554427313	391.756248139965	556.713086921533	623.443193382470	346.464224996694	616.281158784209	613.910898527076	237.578697698075	565.672592018464	414.823971650427	159.300899626867	533.517570408434	586.529603618449	123.464192632987	582.874743081154	477.276196772715	113.570220108959	612.942882043138	661.091315617856	31.992432234066	620.810813852712	670.733336932642	37.936770361811	399.238901394867	745.369017696495	35.158371766956	318.845480605315	828.549724830106	96.088260103839	345.964539142402	957.173614229933	43.130223547947	318.612209676573	681.807067248670	1080.582267644723	148.344813508758	796.509621327012	844.898910998068	140.682771077966	849.405457758150	1097.451334145897	694.114317881853	1084.635115095921	1020.336890675531	627.966108492620	
92	17.940000000000	781.485326008339	962.127762568641	288.070943326400	571.922914512128	1008.285962746953	451.861703567904	728.776058288622	1435.083187892671	261.868368270013	842.006060892430	1366.468228777678	416.634247410350	768.594074194760	1440.984020486251	595.283416025954	737.181165704249	1497.963455564091	412.181044092732	800.146301546247	940.631152904367	561.712145100490	838.041787562162	736.658929235928	539.868408722333	758.040484384016	629.028411188813	605.226663933180	837.034867496520	568.747893432755	530.153362544652	826.781926884755	459.677245194324	549.965297121201	841.542522415560	756.749089933552	323.256749663062	760.451026576407	636.749531301430	266.159846159395	846.990843222741	563.859004786688	332.711787107674	850.655135250665	492.903243299019	343.494300856822	825.058048088263	420.210056645879	335.386590537807	740.087917216487	303.331870209677	284.451014053473	791.089094948828	194.327955839392	357.550183138735	749.915168006052	393.173690338847	555.397616348990	629.921758060317	351.109796172547	614.629932827894	617.855579103244	242.307423661610	564.423889101813	417.269150416455	171.324527464359	531.485043964039	587.058336736191	127.870759062791	581.822551489041	477.198911500036	123.092740234977	611.427740565119	656.963517614792	31.713716078930	620.642643567219	664.279337985163	37.951922343545	399.142628810727	738.921217581538	35.128040430926	318.766744986863	822.153244100181	96.002400803991	345.897881052142	950.768972443144	42.905333650117	318.575759720991	687.806810080452	1081.181369270057	144.091663125675	810.164937963077	849.342371390357	136.636119442126	841.204844148304	1095.225230197134	693.513037142194	1071.691855385812	999.111923456633	632.899621273746	
93	17.952857142857	781.283392723630	962.289592979774	286.547284482981	570.942680670719	1008.376430971218	449.367731922537	729.609578057778	1435.474451796864	260.581064997515	841.727461659593	1366.503735580933	416.044410085665	767.186745136258	1440.843969565765	594.382135860940	737.213163331393	1498.203774715466	411.034964079298	798.396192421216	940.812740314395	560.156535351959	841.046203814153	739.181353138915	537.678190070946	764.390508348111	629.962127949759	603.572883015439	844.752387173563	571.235177872104	528.275928505968	836.295157837677	461.067062382035	548.581097940698	839.916161708667	756.026732969039	321.498062401925	757.538041657312	636.711147519525	264.740170436905	843.268609609902	563.099259006893	331.435418796940	846.225862631130	492.241834803470	342.494868716316	820.398722049970	419.742185371155	334.469087174505	734.975926383683	303.148139397793	283.684557506906	785.309631678841	194.091764574765	357.202883164244	758.057565971755	394.866901937283	553.983906955218	636.793975972064	355.738374737581	612.913687033886	622.427678933227	247.071367730204	563.019800617877	420.713716792477	182.800200532946	529.268372605806	588.509709933427	132.427389661577	580.591091475335	478.222266470725	132.347795588882	609.724506519128	654.017604352551	31.757839489733	620.311929166169	657.820433069286	37.964457712168	399.048199307959	732.467232559438	35.101359369287	318.689669210573	815.738348367815	95.931132965160	345.829935167843	944.347298793384	42.733071881050	318.534908457373	693.873479663960	1081.802947970545	140.051093945713	823.758853118526	854.085872008525	132.741579763217	832.989450016067	1093.170563863297	693.200902732050	1056.889283927882	978.194481022179	638.232731740658	
94	17.965714285714	780.976436019784	962.413278579961	285.114931148744	569.860107466895	1008.491303530556	447.003048276884	730.404151872910	1435.834697075418	259.433339123717	841.425973732003	1366.478482614188	415.555329026050	765.807842327909	1440.655636472658	593.591641863480	737.287824583632	1498.413497805354	410.021333774699	796.583393996784	940.999156530446	558.708609069348	843.860140091715	741.893712399402	535.617974474254	770.552973778814	631.157888368514	602.011099763920	852.231983447155	574.073109429867	526.496024494233	845.732071332962	462.910904757645	547.136527765268	838.186267130146	755.304751643180	319.855235145581	754.530901852825	636.665588635163	263.422537716037	839.479654782640	562.348472922279	330.243926368457	841.746196901658	491.591262533152	341.575958465559	815.691896734142	419.292513390882	333.621327892134	729.810612395314	302.990070104962	282.976609946006	779.498946696158	193.870495622905	356.879356564339	766.346546016547	396.835470310488	552.527520964884	644.001673275940	360.236140596384	611.170029881674	627.668859646867	251.724043065533	561.511958877773	425.173707923018	193.281304431421	526.958732990599	591.043533250242	136.921475638365	579.180863618684	480.494113460038	140.936368357512	607.883856580059	652.637617100926	32.179794379045	619.759866558715	651.354930716131	37.976207364604	398.958117343212	726.006086987180	35.077881225457	318.615758348581	809.307836431421	95.871154113292	345.761399292489	937.910117849089	42.598037771728	318.490632681920	699.966094091714	1082.463579469535	136.261969501500	837.234364296710	859.134760588626	129.013444236901	824.758556399930	1091.325901048431	693.153272649208	1040.238564053956	957.878789502011	643.883974730861	
